<svg width="42" height="40" viewBox="0 0 42 40" fill="none" xmlns="http://www.w3.org/2000/svg">
<g filter="url(#filter0_d_16_40)">
<path d="M12.6667 27V30.3333M29.3333 27V30.3333M29.3333 13.6667C30.2538 13.6667 31 12.9205 31 12C31 11.0795 30.2538 10.3333 29.3333 10.3333C28.4128 10.3333 27.6667 11.0795 27.6667 12C27.6667 12.9205 28.4128 13.6667 29.3333 13.6667ZM29.3333 13.6667V18.6667M29.3333 12H29.35M16.8333 14.5H16.85M22.6667 14.5C22.6667 17.7217 20.055 20.3333 16.8333 20.3333C13.6117 20.3333 11 17.7217 11 14.5C11 11.2783 13.6117 8.66667 16.8333 8.66667C20.055 8.66667 22.6667 11.2783 22.6667 14.5ZM14 27H28C30.8003 27 32.2003 27 33.27 26.455C34.2108 25.9757 34.9757 25.2108 35.455 24.27C36 23.2003 36 21.8003 36 19V10C36 7.19973 36 5.7996 35.455 4.73005C34.9757 3.78923 34.2108 3.02433 33.27 2.54497C32.2003 2 30.8003 2 28 2H14C11.1997 2 9.7996 2 8.73005 2.54497C7.78923 3.02433 7.02433 3.78923 6.54497 4.73005C6 5.7996 6 7.19973 6 10V19C6 21.8003 6 23.2003 6.54497 24.27C7.02433 25.2108 7.78923 25.9757 8.73005 26.455C9.7996 27 11.1997 27 14 27Z" stroke="black" stroke-width="3" stroke-linecap="round" stroke-linejoin="round" shape-rendering="crispEdges"/>
</g>
<defs>
<filter id="filter0_d_16_40" x="0.5" y="0.5" width="41" height="39.3333" filterUnits="userSpaceOnUse" color-interpolation-filters="sRGB">
<feFlood flood-opacity="0" result="BackgroundImageFix"/>
<feColorMatrix in="SourceAlpha" type="matrix" values="0 0 0 0 0 0 0 0 0 0 0 0 0 0 0 0 0 0 127 0" result="hardAlpha"/>
<feOffset dy="4"/>
<feGaussianBlur stdDeviation="2"/>
<feComposite in2="hardAlpha" operator="out"/>
<feColorMatrix type="matrix" values="0 0 0 0 0 0 0 0 0 0 0 0 0 0 0 0 0 0 0.25 0"/>
<feBlend mode="normal" in2="BackgroundImageFix" result="effect1_dropShadow_16_40"/>
<feBlend mode="normal" in="SourceGraphic" in2="effect1_dropShadow_16_40" result="shape"/>
</filter>
</defs>
</svg>
